<svg width="172" height="45" viewBox="0 0 172 45" fill="none" xmlns="http://www.w3.org/2000/svg">
<g clip-path="url(#clip0_2941_27690)">
<path d="M21.2101 3.6649L23.3157 1.47475C24.8253 -0.277327 27.7305 -0.643402 29.5811 1.33795L51.8815 25.2149C53.7192 27.1826 53.24 30.3443 50.9012 31.6823L28.6008 44.4401C27.064 45.3191 25.3188 45.1054 24.0605 44.2L2.10392 31.6389C-0.234939 30.3008 -0.714173 27.1391 1.12357 25.1715C1.53448 24.7315 2.08285 24.4435 2.67912 24.3545C3.27539 24.2654 3.88432 24.3806 4.40645 24.6812L24.0605 35.958V27.4872L11.2367 20.1765C9.42577 19.1318 9.05732 16.6802 10.4813 15.1523L10.484 15.1493L10.486 15.1471C10.9885 14.6101 11.6587 14.2587 12.3872 14.1502C13.1157 14.0418 13.8595 14.1827 14.4974 14.5499L24.0605 19.9529V11.7764L21.0181 9.86725C19.1544 8.794 17.4721 7.66697 18.9389 6.0967L21.2101 3.6649V3.6649Z" fill="#171A2B"/>
</g>
<path d="M72.0277 30.8C70.9544 30.8 70.0577 30.55 69.3377 30.05C68.6177 29.55 68.0744 28.87 67.7077 28.01C67.3477 27.15 67.1677 26.18 67.1677 25.1C67.1677 24.02 67.3477 23.05 67.7077 22.19C68.0677 21.33 68.5977 20.65 69.2977 20.15C69.9977 19.65 70.8611 19.4 71.8877 19.4C72.9211 19.4 73.8211 19.6467 74.5877 20.14C75.3544 20.6333 75.9477 21.31 76.3677 22.17C76.7944 23.0233 77.0077 24 77.0077 25.1C77.0077 26.18 76.7977 27.15 76.3777 28.01C75.9644 28.87 75.3844 29.55 74.6377 30.05C73.8911 30.55 73.0211 30.8 72.0277 30.8ZM66.7077 30.5V16.1H69.4477V23.1H69.1077V30.5H66.7077ZM71.5877 28.38C72.1744 28.38 72.6544 28.2333 73.0277 27.94C73.4011 27.6467 73.6777 27.2533 73.8577 26.76C74.0377 26.26 74.1277 25.7067 74.1277 25.1C74.1277 24.5 74.0344 23.9533 73.8477 23.46C73.6611 22.96 73.3711 22.5633 72.9777 22.27C72.5911 21.97 72.0944 21.82 71.4877 21.82C70.9211 21.82 70.4611 21.9567 70.1077 22.23C69.7611 22.5033 69.5077 22.8867 69.3477 23.38C69.1877 23.8733 69.1077 24.4467 69.1077 25.1C69.1077 25.7533 69.1877 26.3267 69.3477 26.82C69.5077 27.3133 69.7677 27.6967 70.1277 27.97C70.4944 28.2433 70.9811 28.38 71.5877 28.38ZM83.0282 30.82C82.1815 30.82 81.4915 30.6767 80.9582 30.39C80.4249 30.1033 80.0082 29.74 79.7082 29.3C79.4149 28.86 79.2049 28.4033 79.0782 27.93C78.9515 27.45 78.8749 27.0133 78.8482 26.62C78.8215 26.2267 78.8082 25.94 78.8082 25.76V19.7H81.5682V24.8C81.5682 25.0467 81.5815 25.3633 81.6082 25.75C81.6349 26.13 81.7182 26.5133 81.8582 26.9C81.9982 27.2867 82.2249 27.61 82.5382 27.87C82.8582 28.13 83.3082 28.26 83.8882 28.26C84.1215 28.26 84.3715 28.2233 84.6382 28.15C84.9049 28.0767 85.1549 27.9367 85.3882 27.73C85.6215 27.5167 85.8115 27.2067 85.9582 26.8C86.1115 26.3867 86.1882 25.8467 86.1882 25.18L87.7482 25.92C87.7482 26.7733 87.5749 27.5733 87.2282 28.32C86.8815 29.0667 86.3582 29.67 85.6582 30.13C84.9649 30.59 84.0882 30.82 83.0282 30.82ZM86.5282 30.5V26.92H86.1882V19.7H88.9282V30.5H86.5282ZM91.723 18.2V15.8H94.443V18.2H91.723ZM91.723 30.5V19.7H94.443V30.5H91.723ZM97.441 30.5V15.8H100.161V30.5H97.441ZM107.339 30.8C106.346 30.8 105.476 30.55 104.729 30.05C103.982 29.55 103.399 28.87 102.979 28.01C102.566 27.15 102.359 26.18 102.359 25.1C102.359 24 102.569 23.0233 102.989 22.17C103.416 21.31 104.012 20.6333 104.779 20.14C105.546 19.6467 106.446 19.4 107.479 19.4C108.506 19.4 109.369 19.65 110.069 20.15C110.769 20.65 111.299 21.33 111.659 22.19C112.019 23.05 112.199 24.02 112.199 25.1C112.199 26.18 112.016 27.15 111.649 28.01C111.289 28.87 110.749 29.55 110.029 30.05C109.309 30.55 108.412 30.8 107.339 30.8ZM107.779 28.38C108.386 28.38 108.869 28.2433 109.229 27.97C109.596 27.6967 109.859 27.3133 110.019 26.82C110.179 26.3267 110.259 25.7533 110.259 25.1C110.259 24.4467 110.179 23.8733 110.019 23.38C109.859 22.8867 109.602 22.5033 109.249 22.23C108.902 21.9567 108.446 21.82 107.879 21.82C107.272 21.82 106.772 21.97 106.379 22.27C105.992 22.5633 105.706 22.96 105.519 23.46C105.332 23.9533 105.239 24.5 105.239 25.1C105.239 25.7067 105.329 26.26 105.509 26.76C105.689 27.2533 105.966 27.6467 106.339 27.94C106.712 28.2333 107.192 28.38 107.779 28.38ZM110.259 30.5V23.1H109.919V16.1H112.659V30.5H110.259ZM119.479 30.8C118.119 30.8 117.019 30.4933 116.179 29.88C115.346 29.26 114.839 28.3867 114.659 27.26L117.439 26.84C117.552 27.3467 117.802 27.7433 118.189 28.03C118.582 28.3167 119.079 28.46 119.679 28.46C120.172 28.46 120.552 28.3667 120.819 28.18C121.086 27.9867 121.219 27.72 121.219 27.38C121.219 27.1667 121.166 26.9967 121.059 26.87C120.952 26.7367 120.712 26.6067 120.339 26.48C119.972 26.3533 119.399 26.1867 118.619 25.98C117.739 25.7533 117.036 25.5 116.509 25.22C115.982 24.94 115.602 24.6067 115.369 24.22C115.136 23.8267 115.019 23.3533 115.019 22.8C115.019 22.1067 115.196 21.5067 115.549 21C115.902 20.4867 116.399 20.0933 117.039 19.82C117.686 19.54 118.446 19.4 119.319 19.4C120.166 19.4 120.916 19.53 121.569 19.79C122.222 20.05 122.749 20.42 123.149 20.9C123.556 21.38 123.806 21.9467 123.899 22.6L121.119 23.1C121.072 22.7 120.899 22.3833 120.599 22.15C120.299 21.9167 119.892 21.78 119.379 21.74C118.879 21.7067 118.476 21.7733 118.169 21.94C117.869 22.1067 117.719 22.3467 117.719 22.66C117.719 22.8467 117.782 23.0033 117.909 23.13C118.042 23.2567 118.312 23.3867 118.719 23.52C119.132 23.6533 119.759 23.8267 120.599 24.04C121.419 24.2533 122.076 24.5033 122.569 24.79C123.069 25.07 123.432 25.41 123.659 25.81C123.886 26.2033 123.999 26.68 123.999 27.24C123.999 28.3467 123.599 29.2167 122.799 29.85C121.999 30.4833 120.892 30.8 119.479 30.8ZM131.296 30.8C130.223 30.8 129.326 30.55 128.606 30.05C127.886 29.55 127.343 28.87 126.976 28.01C126.616 27.15 126.436 26.18 126.436 25.1C126.436 24.02 126.616 23.05 126.976 22.19C127.336 21.33 127.866 20.65 128.566 20.15C129.266 19.65 130.13 19.4 131.156 19.4C132.19 19.4 133.09 19.6467 133.856 20.14C134.623 20.6333 135.216 21.31 135.636 22.17C136.063 23.0233 136.276 24 136.276 25.1C136.276 26.18 136.066 27.15 135.646 28.01C135.233 28.87 134.653 29.55 133.906 30.05C133.16 30.55 132.29 30.8 131.296 30.8ZM125.976 35.3V19.7H128.376V27.1H128.716V35.3H125.976ZM130.856 28.38C131.443 28.38 131.923 28.2333 132.296 27.94C132.67 27.6467 132.946 27.2533 133.126 26.76C133.306 26.26 133.396 25.7067 133.396 25.1C133.396 24.5 133.303 23.9533 133.116 23.46C132.93 22.96 132.64 22.5633 132.246 22.27C131.86 21.97 131.363 21.82 130.756 21.82C130.19 21.82 129.73 21.9567 129.376 22.23C129.03 22.5033 128.776 22.8867 128.616 23.38C128.456 23.8733 128.376 24.4467 128.376 25.1C128.376 25.7533 128.456 26.3267 128.616 26.82C128.776 27.3133 129.036 27.6967 129.396 27.97C129.763 28.2433 130.25 28.38 130.856 28.38ZM141.277 30.8C140.504 30.8 139.847 30.6533 139.307 30.36C138.774 30.06 138.367 29.6633 138.087 29.17C137.814 28.67 137.677 28.12 137.677 27.52C137.677 27.02 137.754 26.5633 137.907 26.15C138.06 25.7367 138.307 25.3733 138.647 25.06C138.994 24.74 139.457 24.4733 140.037 24.26C140.437 24.1133 140.914 23.9833 141.467 23.87C142.02 23.7567 142.647 23.65 143.347 23.55C144.047 23.4433 144.817 23.3267 145.657 23.2L144.677 23.74C144.677 23.1 144.524 22.63 144.217 22.33C143.91 22.03 143.397 21.88 142.677 21.88C142.277 21.88 141.86 21.9767 141.427 22.17C140.994 22.3633 140.69 22.7067 140.517 23.2L138.057 22.42C138.33 21.5267 138.844 20.8 139.597 20.24C140.35 19.68 141.377 19.4 142.677 19.4C143.63 19.4 144.477 19.5467 145.217 19.84C145.957 20.1333 146.517 20.64 146.897 21.36C147.11 21.76 147.237 22.16 147.277 22.56C147.317 22.96 147.337 23.4067 147.337 23.9V30.5H144.957V28.28L145.297 28.74C144.77 29.4667 144.2 29.9933 143.587 30.32C142.98 30.64 142.21 30.8 141.277 30.8ZM141.857 28.66C142.357 28.66 142.777 28.5733 143.117 28.4C143.464 28.22 143.737 28.0167 143.937 27.79C144.144 27.5633 144.284 27.3733 144.357 27.22C144.497 26.9267 144.577 26.5867 144.597 26.2C144.624 25.8067 144.637 25.48 144.637 25.22L145.437 25.42C144.63 25.5533 143.977 25.6667 143.477 25.76C142.977 25.8467 142.574 25.9267 142.267 26C141.96 26.0733 141.69 26.1533 141.457 26.24C141.19 26.3467 140.974 26.4633 140.807 26.59C140.647 26.71 140.527 26.8433 140.447 26.99C140.374 27.1367 140.337 27.3 140.337 27.48C140.337 27.7267 140.397 27.94 140.517 28.12C140.644 28.2933 140.82 28.4267 141.047 28.52C141.274 28.6133 141.544 28.66 141.857 28.66ZM154.497 30.8C153.377 30.8 152.417 30.55 151.617 30.05C150.817 29.55 150.204 28.87 149.777 28.01C149.35 27.15 149.137 26.18 149.137 25.1C149.137 24.0067 149.357 23.03 149.797 22.17C150.244 21.31 150.87 20.6333 151.677 20.14C152.484 19.6467 153.437 19.4 154.537 19.4C155.81 19.4 156.877 19.7233 157.737 20.37C158.604 21.01 159.157 21.8867 159.397 23L156.677 23.72C156.517 23.16 156.237 22.7233 155.837 22.41C155.444 22.0967 154.997 21.94 154.497 21.94C153.924 21.94 153.454 22.08 153.087 22.36C152.72 22.6333 152.45 23.01 152.277 23.49C152.104 23.9633 152.017 24.5 152.017 25.1C152.017 26.04 152.224 26.8033 152.637 27.39C153.057 27.97 153.677 28.26 154.497 28.26C155.11 28.26 155.577 28.12 155.897 27.84C156.217 27.56 156.457 27.16 156.617 26.64L159.397 27.22C159.09 28.3667 158.51 29.25 157.657 29.87C156.804 30.49 155.75 30.8 154.497 30.8ZM165.924 30.8C164.818 30.8 163.841 30.5633 162.994 30.09C162.154 29.61 161.494 28.9533 161.014 28.12C160.541 27.28 160.304 26.32 160.304 25.24C160.304 24.06 160.538 23.0333 161.004 22.16C161.471 21.2867 162.114 20.61 162.934 20.13C163.754 19.6433 164.698 19.4 165.764 19.4C166.898 19.4 167.861 19.6667 168.654 20.2C169.448 20.7333 170.034 21.4833 170.414 22.45C170.794 23.4167 170.928 24.5533 170.814 25.86H168.124V24.86C168.124 23.76 167.948 22.97 167.594 22.49C167.248 22.0033 166.678 21.76 165.884 21.76C164.958 21.76 164.274 22.0433 163.834 22.61C163.401 23.17 163.184 24 163.184 25.1C163.184 26.1067 163.401 26.8867 163.834 27.44C164.274 27.9867 164.918 28.26 165.764 28.26C166.298 28.26 166.754 28.1433 167.134 27.91C167.514 27.6767 167.804 27.34 168.004 26.9L170.724 27.68C170.318 28.6667 169.674 29.4333 168.794 29.98C167.921 30.5267 166.964 30.8 165.924 30.8ZM162.344 25.86V23.84H169.504V25.86H162.344Z" fill="#171A2B"/>
<defs>
<clipPath id="clip0_2941_27690">
<rect width="53" height="45" fill="white"/>
</clipPath>
</defs>
</svg>
