<svg width="174" height="45" viewBox="0 0 174 45" fill="none" xmlns="http://www.w3.org/2000/svg">
<g clip-path="url(#clip0_2928_27817)">
<path d="M21.2101 3.6649L23.3157 1.47475C24.8253 -0.277327 27.7305 -0.643402 29.5811 1.33795L51.8815 25.2149C53.7192 27.1826 53.24 30.3443 50.9012 31.6823L28.6008 44.4401C27.064 45.3191 25.3188 45.1054 24.0605 44.2L2.10392 31.6389C-0.234939 30.3008 -0.714173 27.1391 1.12357 25.1715C1.53448 24.7315 2.08285 24.4435 2.67912 24.3545C3.27539 24.2654 3.88432 24.3806 4.40645 24.6812L24.0605 35.958V27.4872L11.2367 20.1765C9.42577 19.1318 9.05732 16.6802 10.4813 15.1523L10.484 15.1493L10.486 15.1471C10.9885 14.6101 11.6587 14.2587 12.3872 14.1502C13.1157 14.0418 13.8595 14.1827 14.4974 14.5499L24.0605 19.9529V11.7764L21.0181 9.86725C19.1544 8.794 17.4721 7.66697 18.9389 6.0967L21.2101 3.6649Z" fill="white"/>
</g>
<path d="M66.5357 29.5V14.9545H72.3596C73.4296 14.9545 74.3221 15.1132 75.0371 15.4304C75.7521 15.7476 76.2895 16.188 76.6493 16.7514C77.0092 17.3101 77.1891 17.9541 77.1891 18.6832C77.1891 19.2514 77.0755 19.7509 76.8482 20.1818C76.6209 20.608 76.3084 20.9583 75.9107 21.233C75.5177 21.5028 75.0679 21.6946 74.5613 21.8082V21.9503C75.1152 21.974 75.6337 22.1302 76.1167 22.419C76.6043 22.7079 76.9997 23.1127 77.3027 23.6335C77.6058 24.1496 77.7573 24.7652 77.7573 25.4801C77.7573 26.2519 77.5655 26.9408 77.182 27.5469C76.8032 28.1482 76.2421 28.6241 75.4988 28.9744C74.7554 29.3248 73.8392 29.5 72.7502 29.5H66.5357ZM69.611 26.9858H72.1181C72.9751 26.9858 73.6001 26.8224 73.9931 26.4957C74.3861 26.1643 74.5826 25.724 74.5826 25.1747C74.5826 24.7723 74.4855 24.4171 74.2914 24.1094C74.0972 23.8016 73.8203 23.5601 73.4604 23.3849C73.1053 23.2098 72.6815 23.1222 72.1891 23.1222H69.611V26.9858ZM69.611 21.0412H71.8908C72.3122 21.0412 72.6863 20.9678 73.013 20.821C73.3444 20.6695 73.6048 20.4564 73.7942 20.1818C73.9883 19.9072 74.0854 19.5781 74.0854 19.1946C74.0854 18.669 73.8984 18.2453 73.5243 17.9233C73.155 17.6013 72.6294 17.4403 71.9476 17.4403H69.611V21.0412ZM86.6973 24.8551V18.5909H89.7228V29.5H86.818V27.5185H86.7044C86.4582 28.1577 86.0486 28.6714 85.4757 29.0597C84.9075 29.4479 84.2138 29.642 83.3947 29.642C82.6655 29.642 82.024 29.4763 81.47 29.1449C80.916 28.8134 80.4828 28.3423 80.1703 27.7315C79.8625 27.1207 79.7063 26.3892 79.7015 25.5369V18.5909H82.7271V24.9972C82.7318 25.6411 82.9047 26.1501 83.2456 26.5241C83.5865 26.8982 84.0434 27.0852 84.6163 27.0852C84.9809 27.0852 85.3218 27.0024 85.639 26.8366C85.9563 26.6662 86.2119 26.4152 86.4061 26.0838C86.6049 25.7524 86.702 25.3428 86.6973 24.8551ZM92.1429 29.5V18.5909H95.1685V29.5H92.1429ZM93.6628 17.1847C93.213 17.1847 92.8271 17.0355 92.5051 16.7372C92.1879 16.4342 92.0293 16.072 92.0293 15.6506C92.0293 15.2339 92.1879 14.8764 92.5051 14.5781C92.8271 14.2751 93.213 14.1236 93.6628 14.1236C94.1126 14.1236 94.4962 14.2751 94.8134 14.5781C95.1354 14.8764 95.2963 15.2339 95.2963 15.6506C95.2963 16.072 95.1354 16.4342 94.8134 16.7372C94.4962 17.0355 94.1126 17.1847 93.6628 17.1847ZM100.618 14.9545V29.5H97.5922V14.9545H100.618ZM107.061 29.6776C106.233 29.6776 105.482 29.4645 104.81 29.0384C104.142 28.6075 103.612 27.9754 103.219 27.142C102.831 26.304 102.637 25.2765 102.637 24.0597C102.637 22.8097 102.838 21.7704 103.24 20.9418C103.643 20.1084 104.178 19.4858 104.845 19.0739C105.518 18.6572 106.254 18.4489 107.054 18.4489C107.665 18.4489 108.174 18.553 108.581 18.7614C108.993 18.965 109.325 19.2206 109.575 19.5284C109.831 19.8314 110.025 20.1297 110.158 20.4233H110.25V14.9545H113.269V29.5H110.286V27.7528H110.158C110.016 28.0559 109.815 28.3565 109.554 28.6548C109.298 28.9484 108.965 29.1922 108.553 29.3864C108.146 29.5805 107.648 29.6776 107.061 29.6776ZM108.02 27.2699C108.508 27.2699 108.92 27.1373 109.256 26.8722C109.597 26.6023 109.857 26.2259 110.037 25.7429C110.222 25.2599 110.314 24.6941 110.314 24.0455C110.314 23.3968 110.224 22.8333 110.044 22.3551C109.864 21.8769 109.604 21.5076 109.263 21.2472C108.922 20.9867 108.508 20.8565 108.02 20.8565C107.523 20.8565 107.104 20.9915 106.763 21.2614C106.422 21.5312 106.164 21.9053 105.989 22.3835C105.814 22.8617 105.726 23.4157 105.726 24.0455C105.726 24.6799 105.814 25.241 105.989 25.7287C106.169 26.2116 106.427 26.5904 106.763 26.8651C107.104 27.1349 107.523 27.2699 108.02 27.2699ZM124.833 21.7017L122.063 21.8722C122.016 21.6354 121.914 21.4223 121.758 21.233C121.601 21.0388 121.395 20.8849 121.14 20.7713C120.889 20.6529 120.588 20.5938 120.238 20.5938C119.769 20.5938 119.374 20.6932 119.052 20.892C118.73 21.0862 118.569 21.3466 118.569 21.6733C118.569 21.9337 118.673 22.1539 118.881 22.3338C119.09 22.5137 119.447 22.6581 119.954 22.767L121.928 23.1648C122.989 23.3826 123.779 23.733 124.3 24.2159C124.821 24.6989 125.081 25.3333 125.081 26.1193C125.081 26.8343 124.871 27.4616 124.449 28.0014C124.033 28.5412 123.46 28.9626 122.731 29.2656C122.006 29.5639 121.171 29.7131 120.224 29.7131C118.779 29.7131 117.629 29.4124 116.772 28.8111C115.92 28.205 115.42 27.3812 115.273 26.3395L118.249 26.1832C118.339 26.6236 118.557 26.9598 118.903 27.1918C119.248 27.419 119.691 27.5327 120.231 27.5327C120.761 27.5327 121.187 27.4309 121.509 27.2273C121.836 27.0189 122.001 26.7514 122.006 26.4247C122.001 26.1501 121.885 25.9252 121.658 25.75C121.431 25.5701 121.081 25.4328 120.607 25.3381L118.718 24.9616C117.653 24.7486 116.859 24.3793 116.339 23.8537C115.823 23.3281 115.564 22.6581 115.564 21.8438C115.564 21.143 115.754 20.5393 116.133 20.0327C116.516 19.526 117.054 19.1354 117.745 18.8608C118.441 18.5862 119.255 18.4489 120.188 18.4489C121.566 18.4489 122.65 18.7401 123.441 19.3224C124.236 19.9048 124.7 20.6979 124.833 21.7017ZM126.987 33.5909V18.5909H129.97V20.4233H130.105C130.237 20.1297 130.429 19.8314 130.68 19.5284C130.936 19.2206 131.267 18.965 131.674 18.7614C132.086 18.553 132.597 18.4489 133.208 18.4489C134.004 18.4489 134.738 18.6572 135.41 19.0739C136.082 19.4858 136.62 20.1084 137.022 20.9418C137.425 21.7704 137.626 22.8097 137.626 24.0597C137.626 25.2765 137.429 26.304 137.036 27.142C136.648 27.9754 136.118 28.6075 135.445 29.0384C134.778 29.4645 134.03 29.6776 133.201 29.6776C132.614 29.6776 132.115 29.5805 131.703 29.3864C131.295 29.1922 130.962 28.9484 130.701 28.6548C130.441 28.3565 130.242 28.0559 130.105 27.7528H130.012V33.5909H126.987ZM129.948 24.0455C129.948 24.6941 130.038 25.2599 130.218 25.7429C130.398 26.2259 130.659 26.6023 130.999 26.8722C131.34 27.1373 131.755 27.2699 132.242 27.2699C132.735 27.2699 133.151 27.1349 133.492 26.8651C133.833 26.5904 134.091 26.2116 134.267 25.7287C134.446 25.241 134.536 24.6799 134.536 24.0455C134.536 23.4157 134.449 22.8617 134.274 22.3835C134.098 21.9053 133.84 21.5312 133.499 21.2614C133.159 20.9915 132.74 20.8565 132.242 20.8565C131.75 20.8565 131.333 20.9867 130.992 21.2472C130.656 21.5076 130.398 21.8769 130.218 22.3551C130.038 22.8333 129.948 23.3968 129.948 24.0455ZM142.754 29.706C142.058 29.706 141.437 29.5852 140.893 29.3438C140.348 29.0975 139.918 28.7353 139.6 28.2571C139.288 27.7741 139.132 27.1728 139.132 26.4531C139.132 25.8471 139.243 25.3381 139.465 24.9261C139.688 24.5142 139.991 24.1828 140.374 23.9318C140.758 23.6809 141.194 23.4915 141.681 23.3636C142.174 23.2358 142.69 23.1458 143.23 23.0938C143.864 23.0275 144.375 22.9659 144.764 22.9091C145.152 22.8475 145.434 22.7576 145.609 22.6392C145.784 22.5208 145.872 22.3456 145.872 22.1136V22.071C145.872 21.6212 145.73 21.2732 145.445 21.027C145.166 20.7808 144.768 20.6577 144.252 20.6577C143.708 20.6577 143.275 20.7784 142.953 21.0199C142.631 21.2566 142.418 21.5549 142.313 21.9148L139.515 21.6875C139.657 21.0246 139.936 20.4517 140.353 19.9688C140.77 19.4811 141.307 19.107 141.965 18.8466C142.628 18.5814 143.395 18.4489 144.267 18.4489C144.873 18.4489 145.453 18.5199 146.007 18.6619C146.565 18.804 147.06 19.0241 147.491 19.3224C147.927 19.6207 148.27 20.0043 148.521 20.473C148.772 20.937 148.897 21.4934 148.897 22.142V29.5H146.028V27.9872H145.943C145.767 28.3281 145.533 28.6288 145.24 28.8892C144.946 29.1449 144.593 29.3461 144.181 29.4929C143.769 29.6349 143.294 29.706 142.754 29.706ZM143.62 27.6179C144.065 27.6179 144.458 27.5303 144.799 27.3551C145.14 27.1752 145.408 26.9337 145.602 26.6307C145.796 26.3277 145.893 25.9844 145.893 25.6009V24.4432C145.798 24.5047 145.668 24.5616 145.502 24.6136C145.341 24.661 145.159 24.706 144.955 24.7486C144.752 24.7865 144.548 24.822 144.345 24.8551C144.141 24.8835 143.956 24.9096 143.791 24.9332C143.436 24.9853 143.125 25.0682 142.86 25.1818C142.595 25.2955 142.389 25.4493 142.242 25.6435C142.096 25.8329 142.022 26.0696 142.022 26.3537C142.022 26.7656 142.171 27.0805 142.47 27.2983C142.773 27.5114 143.156 27.6179 143.62 27.6179ZM156.173 29.7131C155.056 29.7131 154.095 29.4763 153.29 29.0028C152.49 28.5246 151.874 27.8617 151.443 27.0142C151.017 26.1667 150.804 25.1913 150.804 24.0881C150.804 22.9706 151.02 21.9905 151.45 21.1477C151.886 20.3002 152.504 19.6397 153.304 19.1662C154.104 18.688 155.056 18.4489 156.159 18.4489C157.111 18.4489 157.944 18.6217 158.659 18.9673C159.374 19.313 159.94 19.7983 160.357 20.4233C160.773 21.0483 161.003 21.7822 161.046 22.625H158.191C158.11 22.0805 157.897 21.6425 157.551 21.3111C157.21 20.9749 156.763 20.8068 156.209 20.8068C155.74 20.8068 155.331 20.9347 154.98 21.1903C154.635 21.4413 154.365 21.8082 154.171 22.2912C153.977 22.7741 153.879 23.3589 153.879 24.0455C153.879 24.7415 153.974 25.3333 154.164 25.821C154.358 26.3087 154.63 26.6804 154.98 26.9361C155.331 27.1918 155.74 27.3196 156.209 27.3196C156.555 27.3196 156.865 27.2486 157.139 27.1065C157.419 26.9645 157.648 26.7585 157.828 26.4886C158.013 26.214 158.134 25.8849 158.191 25.5014H161.046C160.998 26.3348 160.771 27.0687 160.364 27.7031C159.961 28.3329 159.405 28.8253 158.695 29.1804C157.985 29.5355 157.144 29.7131 156.173 29.7131ZM167.954 29.7131C166.832 29.7131 165.866 29.4858 165.057 29.0312C164.252 28.572 163.631 27.9233 163.196 27.0852C162.76 26.2424 162.542 25.2457 162.542 24.0952C162.542 22.973 162.76 21.9882 163.196 21.1406C163.631 20.2931 164.245 19.6326 165.035 19.1591C165.831 18.6856 166.764 18.4489 167.834 18.4489C168.553 18.4489 169.223 18.5649 169.844 18.7969C170.469 19.0241 171.013 19.3674 171.477 19.8267C171.946 20.286 172.31 20.8636 172.571 21.5597C172.831 22.2509 172.961 23.0606 172.961 23.9886V24.8196H163.75V22.9446H170.113C170.113 22.509 170.019 22.1231 169.829 21.7869C169.64 21.4508 169.377 21.188 169.041 20.9986C168.71 20.8045 168.324 20.7074 167.883 20.7074C167.424 20.7074 167.017 20.8139 166.662 21.027C166.311 21.2353 166.037 21.517 165.838 21.8722C165.639 22.2225 165.537 22.6132 165.532 23.044V24.8267C165.532 25.3665 165.632 25.8329 165.831 26.2259C166.034 26.6188 166.321 26.9219 166.69 27.1349C167.059 27.348 167.497 27.4545 168.004 27.4545C168.34 27.4545 168.648 27.4072 168.927 27.3125C169.207 27.2178 169.446 27.0758 169.645 26.8864C169.844 26.697 169.995 26.465 170.099 26.1903L172.898 26.375C172.756 27.0473 172.464 27.6345 172.024 28.1364C171.588 28.6335 171.025 29.0218 170.334 29.3011C169.647 29.5758 168.854 29.7131 167.954 29.7131Z" fill="white"/>
<defs>
<clipPath id="clip0_2928_27817">
<rect width="53" height="45" fill="white"/>
</clipPath>
</defs>
</svg>
