<svg width="521" height="91" viewBox="0 0 521 91" fill="none" xmlns="http://www.w3.org/2000/svg">
<rect width="521" height="91" rx="16" fill="#1E2235"/>
<path d="M261.312 19.8182H263.141V26.9773C263.138 27.6335 262.999 28.1986 262.724 28.6726C262.449 29.1432 262.064 29.5062 261.57 29.7614C261.08 30.0133 260.508 30.1392 259.855 30.1392C259.258 30.1392 258.722 30.0331 258.244 29.821C257.77 29.6056 257.394 29.2874 257.116 28.8665C256.837 28.4455 256.698 27.9219 256.698 27.2955H258.533C258.536 27.5705 258.596 27.8075 258.712 28.0064C258.831 28.2053 258.995 28.3577 259.204 28.4638C259.413 28.5698 259.653 28.6229 259.925 28.6229C260.22 28.6229 260.47 28.5616 260.675 28.4389C260.881 28.313 261.037 28.1274 261.143 27.8821C261.252 27.6368 261.308 27.3352 261.312 26.9773V19.8182ZM271.961 19.8182H273.805V26.4702C273.805 27.1993 273.633 27.8407 273.288 28.3942C272.947 28.9477 272.466 29.3802 271.846 29.6918C271.227 30 270.502 30.1541 269.674 30.1541C268.842 30.1541 268.116 30 267.496 29.6918C266.876 29.3802 266.396 28.9477 266.054 28.3942C265.713 27.8407 265.542 27.1993 265.542 26.4702V19.8182H267.387V26.3161C267.387 26.7403 267.48 27.1181 267.665 27.4496C267.854 27.781 268.119 28.0412 268.461 28.2301C268.802 28.4157 269.206 28.5085 269.674 28.5085C270.141 28.5085 270.545 28.4157 270.887 28.2301C271.232 28.0412 271.497 27.781 271.682 27.4496C271.868 27.1181 271.961 26.7403 271.961 26.3161V19.8182ZM276.21 30V19.8182H282.832V21.3643H278.054V24.1286H282.489V25.6747H278.054V28.4538H282.872V30H276.21Z" fill="#ABADC6"/>
<path d="M270.006 56.1392C269.266 56.1392 268.61 56.0149 268.037 55.7663C267.467 55.5178 267.019 55.178 266.695 54.7472C266.373 54.313 266.214 53.8208 266.217 53.2706C266.214 52.843 266.307 52.4503 266.496 52.0923C266.685 51.7344 266.94 51.4361 267.261 51.1974C267.586 50.9555 267.947 50.8014 268.345 50.7351V50.6655C267.821 50.5495 267.397 50.2827 267.072 49.8651C266.751 49.4441 266.592 48.9586 266.595 48.4084C266.592 47.8847 266.738 47.4174 267.033 47.0064C267.328 46.5954 267.732 46.2723 268.246 46.0369C268.759 45.7983 269.346 45.679 270.006 45.679C270.659 45.679 271.24 45.7983 271.751 46.0369C272.264 46.2723 272.669 46.5954 272.964 47.0064C273.262 47.4174 273.411 47.8847 273.411 48.4084C273.411 48.9586 273.247 49.4441 272.919 49.8651C272.594 50.2827 272.175 50.5495 271.661 50.6655V50.7351C272.059 50.8014 272.417 50.9555 272.735 51.1974C273.056 51.4361 273.312 51.7344 273.501 52.0923C273.693 52.4503 273.789 52.843 273.789 53.2706C273.789 53.8208 273.627 54.313 273.302 54.7472C272.977 55.178 272.53 55.5178 271.959 55.7663C271.393 56.0149 270.741 56.1392 270.006 56.1392ZM270.006 54.7173C270.387 54.7173 270.718 54.6527 271 54.5234C271.282 54.3909 271.5 54.2053 271.656 53.9666C271.812 53.728 271.891 53.4529 271.895 53.1413C271.891 52.8165 271.807 52.5298 271.641 52.2812C271.479 52.0294 271.255 51.8321 270.97 51.6896C270.688 51.5471 270.367 51.4759 270.006 51.4759C269.641 51.4759 269.316 51.5471 269.031 51.6896C268.746 51.8321 268.521 52.0294 268.355 52.2812C268.193 52.5298 268.113 52.8165 268.116 53.1413C268.113 53.4529 268.189 53.728 268.345 53.9666C268.501 54.2019 268.72 54.3859 269.001 54.5185C269.286 54.651 269.621 54.7173 270.006 54.7173ZM270.006 50.0788C270.317 50.0788 270.592 50.0159 270.831 49.8899C271.073 49.764 271.263 49.5883 271.403 49.3629C271.542 49.1375 271.613 48.8774 271.616 48.5824C271.613 48.2907 271.543 48.0355 271.408 47.8168C271.272 47.5947 271.083 47.424 270.841 47.3047C270.599 47.1821 270.32 47.1207 270.006 47.1207C269.684 47.1207 269.401 47.1821 269.155 47.3047C268.914 47.424 268.725 47.5947 268.589 47.8168C268.456 48.0355 268.391 48.2907 268.395 48.5824C268.391 48.8774 268.458 49.1375 268.594 49.3629C268.733 49.585 268.923 49.7607 269.165 49.8899C269.411 50.0159 269.691 50.0788 270.006 50.0788Z" fill="white"/>
<path d="M331.728 19.8182L334.378 27.8324H334.482L337.127 19.8182H339.156L335.566 30H333.289L329.705 19.8182H331.728ZM342.741 19.8182V30H340.897V19.8182H342.741ZM345.139 30V19.8182H351.761V21.3643H346.983V24.1286H351.418V25.6747H346.983V28.4538H351.801V30H345.139Z" fill="#ABADC6"/>
<path d="M340.901 45.679C341.388 45.6823 341.862 45.7685 342.322 45.9375C342.786 46.1032 343.204 46.375 343.575 46.7528C343.946 47.1274 344.241 47.6295 344.46 48.2592C344.679 48.889 344.788 49.6679 344.788 50.5959C344.792 51.4709 344.699 52.2531 344.51 52.9425C344.324 53.6286 344.058 54.2086 343.71 54.6825C343.362 55.1565 342.942 55.5178 342.452 55.7663C341.961 56.0149 341.409 56.1392 340.796 56.1392C340.153 56.1392 339.583 56.0133 339.086 55.7614C338.592 55.5095 338.193 55.1648 337.888 54.7273C337.583 54.2898 337.396 53.7893 337.326 53.2259H339.141C339.233 53.6302 339.422 53.9517 339.707 54.1903C339.996 54.4257 340.359 54.5433 340.796 54.5433C341.502 54.5433 342.046 54.2367 342.427 53.6236C342.808 53.0104 342.999 52.1586 342.999 51.0682H342.929C342.767 51.3598 342.556 51.6117 342.298 51.8239C342.039 52.0327 341.746 52.1934 341.418 52.3061C341.093 52.4188 340.748 52.4751 340.384 52.4751C339.787 52.4751 339.25 52.3326 338.773 52.0476C338.299 51.7625 337.923 51.3714 337.644 50.8743C337.369 50.3771 337.23 49.8087 337.227 49.169C337.227 48.5062 337.379 47.9112 337.684 47.3842C337.992 46.8539 338.421 46.4363 338.972 46.1314C339.522 45.8232 340.165 45.6723 340.901 45.679ZM340.906 47.1705C340.548 47.1705 340.224 47.2583 339.936 47.4339C339.651 47.6063 339.426 47.8416 339.26 48.1399C339.098 48.4349 339.016 48.7647 339.016 49.1293C339.02 49.4905 339.101 49.8187 339.26 50.1136C339.422 50.4086 339.643 50.6423 339.921 50.8146C340.203 50.987 340.524 51.0732 340.886 51.0732C341.154 51.0732 341.404 51.0218 341.636 50.919C341.868 50.8163 342.071 50.6738 342.243 50.4915C342.419 50.3059 342.554 50.0954 342.651 49.8601C342.75 49.6248 342.798 49.3762 342.795 49.1143C342.795 48.7663 342.712 48.4448 342.546 48.1499C342.384 47.8549 342.16 47.6179 341.875 47.4389C341.593 47.2599 341.27 47.1705 340.906 47.1705Z" fill="white"/>
<path d="M469.718 30H466.267V19.8182H469.787C470.798 19.8182 471.666 20.022 472.392 20.4297C473.122 20.834 473.682 21.4157 474.073 22.1747C474.464 22.9337 474.659 23.8419 474.659 24.8991C474.659 25.9598 474.462 26.8712 474.068 27.6335C473.677 28.3958 473.112 28.9808 472.372 29.3885C471.637 29.7962 470.752 30 469.718 30ZM468.112 28.4041H469.628C470.337 28.4041 470.929 28.2749 471.403 28.0163C471.877 27.7545 472.233 27.3651 472.472 26.848C472.711 26.3277 472.83 25.678 472.83 24.8991C472.83 24.1203 472.711 23.474 472.472 22.9602C472.233 22.4432 471.88 22.0571 471.413 21.8018C470.949 21.5433 470.372 21.4141 469.683 21.4141H468.112V28.4041ZM485.91 24.9091C485.91 26.0062 485.704 26.9458 485.293 27.728C484.886 28.5069 484.329 29.1035 483.623 29.5178C482.92 29.9321 482.123 30.1392 481.232 30.1392C480.34 30.1392 479.541 29.9321 478.835 29.5178C478.133 29.1001 477.576 28.5019 477.165 27.723C476.757 26.9408 476.553 26.0028 476.553 24.9091C476.553 23.812 476.757 22.8741 477.165 22.0952C477.576 21.313 478.133 20.7147 478.835 20.3004C479.541 19.8861 480.34 19.679 481.232 19.679C482.123 19.679 482.92 19.8861 483.623 20.3004C484.329 20.7147 484.886 21.313 485.293 22.0952C485.704 22.8741 485.91 23.812 485.91 24.9091ZM484.055 24.9091C484.055 24.1368 483.935 23.4856 483.693 22.9553C483.454 22.4216 483.122 22.0189 482.698 21.7472C482.274 21.4721 481.785 21.3345 481.232 21.3345C480.678 21.3345 480.189 21.4721 479.765 21.7472C479.341 22.0189 479.008 22.4216 478.766 22.9553C478.527 23.4856 478.408 24.1368 478.408 24.9091C478.408 25.6813 478.527 26.3343 478.766 26.8679C479.008 27.3982 479.341 27.8009 479.765 28.076C480.189 28.3478 480.678 28.4837 481.232 28.4837C481.785 28.4837 482.274 28.3478 482.698 28.076C483.122 27.8009 483.454 27.3982 483.693 26.8679C483.935 26.3343 484.055 25.6813 484.055 24.9091ZM488.054 19.8182H490.311L493.334 27.196H493.453L496.476 19.8182H498.733V30H496.963V23.005H496.868L494.054 29.9702H492.732L489.918 22.9901H489.824V30H488.054V19.8182Z" fill="#ABADC6"/>
<path d="M480.32 45.8182V56H478.475V47.6129H478.415L476.034 49.1342V47.4439L478.565 45.8182H480.32ZM487.046 45.8182V56H485.202V47.6129H485.142L482.761 49.1342V47.4439L485.291 45.8182H487.046Z" fill="white"/>
<path d="M27.3172 30V19.8182H29.1616V28.4538H33.646V30H27.3172ZM42.0652 19.8182H43.9096V26.4702C43.9096 27.1993 43.7373 27.8407 43.3926 28.3942C43.0512 28.9477 42.5706 29.3802 41.9508 29.6918C41.331 30 40.6068 30.1541 39.7782 30.1541C38.9463 30.1541 38.2205 30 37.6007 29.6918C36.9809 29.3802 36.5003 28.9477 36.1589 28.3942C35.8175 27.8407 35.6468 27.1993 35.6468 26.4702V19.8182H37.4913V26.3161C37.4913 26.7403 37.5841 27.1181 37.7697 27.4496C37.9586 27.781 38.2238 28.0412 38.5652 28.2301C38.9065 28.4157 39.3109 28.5085 39.7782 28.5085C40.2456 28.5085 40.6499 28.4157 40.9913 28.2301C41.336 28.0412 41.6011 27.781 41.7868 27.4496C41.9724 27.1181 42.0652 26.7403 42.0652 26.3161V19.8182ZM54.6816 19.8182V30H53.041L48.2434 23.0646H48.1589V30H46.3144V19.8182H47.965L52.7576 26.7585H52.8471V19.8182H54.6816Z" fill="#ABADC6"/>
<path d="M41.5149 56.1392C40.852 56.1392 40.2588 56.0149 39.7351 55.7663C39.2114 55.5144 38.7955 55.1697 38.4872 54.7322C38.1823 54.2947 38.0199 53.7943 38 53.2308H39.7898C39.8229 53.6484 40.0036 53.9898 40.3317 54.255C40.6598 54.5168 41.0542 54.6477 41.5149 54.6477C41.8762 54.6477 42.1977 54.5649 42.4794 54.3991C42.7611 54.2334 42.9832 54.0031 43.1456 53.7081C43.308 53.4131 43.3875 53.0767 43.3842 52.6989C43.3875 52.3144 43.3063 51.973 43.1406 51.6747C42.9749 51.3764 42.7479 51.1428 42.4595 50.9737C42.1712 50.8014 41.8397 50.7152 41.4652 50.7152C41.1603 50.7119 40.8603 50.7682 40.5653 50.8842C40.2704 51.0002 40.0367 51.1527 39.8643 51.3416L38.1989 51.0682L38.7308 45.8182H44.6371V47.3594H40.2571L39.9638 50.0589H40.0234C40.2124 49.8369 40.4792 49.6529 40.8239 49.5071C41.1686 49.358 41.5464 49.2834 41.9574 49.2834C42.5739 49.2834 43.1241 49.4292 43.608 49.7209C44.0919 50.0092 44.473 50.407 44.7514 50.9141C45.0298 51.4212 45.169 52.0012 45.169 52.6541C45.169 53.3269 45.0133 53.9268 44.7017 54.4538C44.3935 54.9775 43.9643 55.3902 43.4141 55.6918C42.8672 55.9901 42.2341 56.1392 41.5149 56.1392Z" fill="white"/>
<circle cx="41" cy="72" r="3" fill="#2563EB"/>
<path d="M181.088 19.8182H183.345L186.367 27.196H186.487L189.51 19.8182H191.767V30H189.997V23.005H189.902L187.088 29.9702H185.766L182.952 22.9901H182.858V30H181.088V19.8182ZM196.02 19.8182V30H194.175V19.8182H196.02ZM198.417 30V19.8182H205.039V21.3643H200.261V24.1286H204.696V25.6747H200.261V28.4538H205.079V30H198.417Z" fill="#ABADC6"/>
<path d="M190.669 56L195 47.429V47.3594H189.973V45.8182H196.909V47.3942L192.583 56H190.669Z" fill="white"/>
<circle cx="194" cy="72" r="3" fill="#424867"/>
<path d="M401.008 22.6172C400.961 22.183 400.766 21.8449 400.421 21.603C400.08 21.361 399.636 21.2401 399.089 21.2401C398.704 21.2401 398.374 21.2981 398.099 21.4141C397.824 21.5301 397.614 21.6875 397.468 21.8864C397.322 22.0852 397.248 22.3123 397.244 22.5675C397.244 22.7796 397.292 22.9635 397.388 23.1193C397.488 23.2751 397.622 23.4077 397.791 23.517C397.96 23.6231 398.147 23.7126 398.353 23.7855C398.558 23.8584 398.766 23.9197 398.974 23.9695L399.929 24.2081C400.313 24.2976 400.683 24.4186 401.038 24.571C401.396 24.7235 401.715 24.9157 401.997 25.1477C402.282 25.3797 402.508 25.6598 402.673 25.9879C402.839 26.3161 402.922 26.7005 402.922 27.1413C402.922 27.7379 402.769 28.2633 402.464 28.7173C402.16 29.1681 401.719 29.5211 401.142 29.7763C400.569 30.0282 399.874 30.1541 399.059 30.1541C398.267 30.1541 397.579 30.0315 396.996 29.7862C396.416 29.541 395.962 29.183 395.633 28.7124C395.309 28.2417 395.133 27.6683 395.106 26.9922H396.921C396.948 27.3468 397.057 27.6418 397.249 27.8771C397.441 28.1125 397.692 28.2881 398 28.4041C398.312 28.5201 398.66 28.5781 399.044 28.5781C399.445 28.5781 399.796 28.5185 400.098 28.3991C400.403 28.2765 400.642 28.1075 400.814 27.892C400.986 27.6733 401.074 27.4181 401.077 27.1264C401.074 26.8613 400.996 26.6425 400.844 26.4702C400.691 26.2945 400.477 26.1487 400.202 26.0327C399.931 25.9134 399.612 25.8073 399.248 25.7145L398.089 25.4162C397.251 25.2008 396.588 24.8743 396.101 24.4368C395.617 23.996 395.375 23.411 395.375 22.6818C395.375 22.0819 395.537 21.5566 395.862 21.1058C396.19 20.6551 396.636 20.3054 397.2 20.0568C397.763 19.8049 398.401 19.679 399.114 19.679C399.836 19.679 400.469 19.8049 401.013 20.0568C401.56 20.3054 401.989 20.6518 402.3 21.0959C402.612 21.5367 402.773 22.0438 402.783 22.6172H401.008ZM406.11 30H404.141L407.725 19.8182H410.002L413.592 30H411.623L408.904 21.9062H408.824L406.11 30ZM406.174 26.0078H411.544V27.4893H406.174V26.0078ZM415.333 30V19.8182H419.231C419.966 19.8182 420.578 19.9342 421.065 20.1662C421.556 20.3949 421.922 20.7081 422.164 21.1058C422.409 21.5036 422.532 21.9543 422.532 22.4581C422.532 22.8724 422.452 23.227 422.293 23.522C422.134 23.8137 421.92 24.0507 421.652 24.233C421.383 24.4152 421.083 24.5462 420.752 24.6257V24.7251C421.113 24.745 421.46 24.8561 421.791 25.0582C422.126 25.2571 422.399 25.5388 422.611 25.9034C422.824 26.268 422.93 26.7088 422.93 27.2259C422.93 27.7528 422.802 28.2268 422.547 28.6477C422.292 29.0653 421.907 29.3951 421.393 29.6371C420.88 29.879 420.233 30 419.454 30H415.333ZM417.177 28.4588H419.161C419.831 28.4588 420.313 28.3312 420.608 28.076C420.906 27.8175 421.055 27.486 421.055 27.0817C421.055 26.7801 420.981 26.5083 420.832 26.2663C420.682 26.0211 420.47 25.8288 420.195 25.6896C419.92 25.5471 419.592 25.4759 419.211 25.4759H417.177V28.4588ZM417.177 24.1484H419.002C419.32 24.1484 419.607 24.0904 419.862 23.9744C420.117 23.8551 420.318 23.6877 420.464 23.4723C420.613 23.2536 420.687 22.995 420.687 22.6967C420.687 22.3023 420.548 21.9775 420.27 21.7223C419.995 21.4671 419.585 21.3395 419.042 21.3395H417.177V24.1484Z" fill="#ABADC6"/>
<path d="M406.514 45.8182V56H404.669V47.6129H404.61L402.228 49.1342V47.4439L404.759 45.8182H406.514ZM412.863 56.1939C412.044 56.1939 411.341 55.9867 410.755 55.5724C410.171 55.1548 409.722 54.5533 409.407 53.7678C409.096 52.9789 408.94 52.0294 408.94 50.919C408.943 49.8087 409.101 48.8641 409.412 48.0852C409.727 47.303 410.176 46.7064 410.76 46.2955C411.346 45.8845 412.047 45.679 412.863 45.679C413.678 45.679 414.379 45.8845 414.966 46.2955C415.552 46.7064 416.001 47.303 416.313 48.0852C416.628 48.8674 416.785 49.812 416.785 50.919C416.785 52.0327 416.628 52.9839 416.313 53.7727C416.001 54.5582 415.552 55.1581 414.966 55.5724C414.382 55.9867 413.681 56.1939 412.863 56.1939ZM412.863 54.6378C413.499 54.6378 414.001 54.3246 414.369 53.6982C414.74 53.0684 414.926 52.142 414.926 50.919C414.926 50.1103 414.841 49.4309 414.672 48.8807C414.503 48.3305 414.265 47.9162 413.956 47.6378C413.648 47.3561 413.284 47.2152 412.863 47.2152C412.23 47.2152 411.729 47.5301 411.361 48.1598C410.993 48.7862 410.808 49.706 410.804 50.919C410.801 51.7311 410.882 52.4138 411.048 52.9673C411.217 53.5208 411.456 53.9384 411.764 54.2202C412.072 54.4986 412.438 54.6378 412.863 54.6378Z" fill="white"/>
<circle cx="409" cy="72" r="3" fill="#424867"/>
<rect x="92" y="9" width="51" height="73" rx="11" fill="#1E2235"/>
<path d="M102.142 19.8182H104.399L107.422 27.196H107.541L110.564 19.8182H112.821V30H111.051V23.005H110.957L108.143 29.9702H106.821L104.007 22.9901H103.912V30H102.142V19.8182ZM116.537 30H114.569L118.153 19.8182H120.43L124.02 30H122.051L119.331 21.9062H119.252L116.537 30ZM116.602 26.0078H121.971V27.4893H116.602V26.0078ZM125.761 30V19.8182H129.579C130.361 19.8182 131.017 19.9541 131.548 20.2259C132.081 20.4976 132.484 20.8788 132.756 21.3693C133.031 21.8565 133.168 22.425 133.168 23.0746C133.168 23.7275 133.029 24.2943 132.751 24.7749C132.476 25.2521 132.07 25.6217 131.533 25.8835C130.996 26.142 130.336 26.2713 129.554 26.2713H126.835V24.7401H129.305C129.763 24.7401 130.137 24.6771 130.429 24.5511C130.721 24.4219 130.936 24.2346 131.075 23.9893C131.218 23.7408 131.289 23.4358 131.289 23.0746C131.289 22.7133 131.218 22.4051 131.075 22.1499C130.933 21.8913 130.716 21.6958 130.424 21.5632C130.132 21.4273 129.756 21.3594 129.296 21.3594H127.605V30H125.761ZM131.021 25.3864L133.541 30H131.483L129.007 25.3864H131.021Z" fill="#ABADC6"/>
<path d="M118.094 56.1392C117.607 56.1359 117.132 56.0514 116.668 55.8857C116.204 55.7166 115.786 55.4432 115.415 55.0653C115.044 54.6842 114.749 54.1787 114.53 53.549C114.311 52.916 114.203 52.1321 114.207 51.1974C114.207 50.3258 114.299 49.5485 114.485 48.8658C114.671 48.183 114.938 47.6063 115.286 47.1357C115.634 46.6617 116.053 46.3004 116.543 46.0518C117.037 45.8033 117.589 45.679 118.199 45.679C118.839 45.679 119.405 45.8049 119.899 46.0568C120.396 46.3087 120.797 46.6534 121.102 47.0909C121.407 47.5251 121.596 48.0156 121.669 48.5625H119.854C119.762 48.1714 119.571 47.8598 119.283 47.6278C118.998 47.3925 118.636 47.2749 118.199 47.2749C117.493 47.2749 116.949 47.5814 116.568 48.1946C116.19 48.8078 116 49.6496 115.996 50.7202H116.066C116.228 50.4285 116.439 50.1783 116.697 49.9695C116.956 49.7607 117.248 49.5999 117.572 49.4872C117.901 49.3712 118.247 49.3132 118.612 49.3132C119.208 49.3132 119.743 49.4557 120.217 49.7408C120.695 50.0258 121.072 50.4186 121.351 50.919C121.629 51.4162 121.767 51.9863 121.763 52.6293C121.767 53.2988 121.614 53.9003 121.306 54.4339C120.998 54.9643 120.569 55.3819 120.018 55.6868C119.468 55.9917 118.827 56.1425 118.094 56.1392ZM118.085 54.6477C118.446 54.6477 118.769 54.5599 119.054 54.3842C119.339 54.2086 119.564 53.9716 119.73 53.6733C119.896 53.375 119.977 53.0402 119.974 52.669C119.977 52.3045 119.897 51.9747 119.735 51.6797C119.576 51.3847 119.356 51.151 119.074 50.9787C118.792 50.8063 118.471 50.7202 118.109 50.7202C117.841 50.7202 117.591 50.7715 117.359 50.8743C117.127 50.977 116.924 51.1196 116.752 51.3018C116.58 51.4808 116.444 51.6896 116.344 51.9283C116.248 52.1636 116.199 52.4155 116.195 52.6839C116.199 53.0386 116.281 53.3651 116.444 53.6634C116.606 53.9616 116.83 54.2003 117.115 54.3793C117.4 54.5582 117.723 54.6477 118.085 54.6477Z" fill="white"/>
<circle cx="118" cy="72" r="3" fill="#424867"/>
<rect x="92" y="9" width="51" height="73" rx="11" stroke="#2563EB" stroke-width="2"/>
</svg>
