<svg width="195" height="42" viewBox="0 0 195 42" fill="none" xmlns="http://www.w3.org/2000/svg">
<path fill-rule="evenodd" clip-rule="evenodd" d="M48.8143 15.9802C47.485 17.3072 44.8498 19.817 42.7362 21.9083C37.7465 26.4481 37.6667 29.3739 37.935 30.7446C34.2619 26.4505 37.1751 23.2327 39.0435 21.4105C39.9005 20.5703 45.1943 15.382 46.4066 14.2297C50.6936 10.1518 50.6924 8.93122 50.6924 8.93122C52.3216 12.7659 50.1423 14.6555 48.8143 15.9802ZM48.6871 22.3436C47.3823 23.6163 47.9061 23.1066 45.7922 25.1695C42.3538 28.5163 42.3343 30.7446 42.3343 30.7446C40.4153 28.6483 41.5932 25.1636 43.657 23.1534C44.5141 22.316 46.1102 20.8104 47.2471 19.7362C49.5701 17.5434 50.2956 16.9015 50.6244 16.0556C51.5137 19.7318 49.5594 21.4151 48.6871 22.3436ZM34.4564 19.6959C35.409 18.7788 41.4724 12.8451 42.6299 11.7251C46.3867 8.08696 46.2176 6.94464 46.2176 6.94464C47.8398 10.7789 45.6163 12.8743 44.2792 14.1893C42.8225 15.6225 39.1353 19.2276 37.0113 21.3052C31.6778 26.5215 33.5894 30.7436 33.5894 30.7436C30.203 28.2471 30.9625 23.0915 34.4564 19.6959ZM32.2427 15.6017C33.2014 14.6599 38.3527 9.63374 40.0965 7.94604C43.7586 4.40043 43.5462 2.99182 43.7118 2.25327C46.277 4.87103 44.7025 7.52714 43.3111 8.90661C42.0921 10.1152 36.3721 15.8617 34.0468 17.9708C33.4544 18.5083 29.6035 22.0216 29.8545 25.2778C27.7054 22.571 28.2834 19.1405 32.2427 15.6017ZM27.5342 14.1651C28.3975 13.271 34.9458 6.91714 36.0561 5.80548C38.7651 3.10043 38.2294 0.919446 38.2294 0.919446C41.3643 3.29193 40.2114 5.85373 38.5105 7.49208C37.1306 8.82838 32.2405 13.7201 29.9815 15.8744C26.3962 19.3005 26.8315 22.1298 27.5098 24.5511C24.8825 21.8685 23.6901 18.148 27.5342 14.1651ZM38.3542 0.0731201C27.5269 0.0731201 18.75 8.8013 18.75 19.5683C18.75 29.5099 26.2338 37.7129 35.905 38.9117V36.1518C32.6737 35.6687 29.4497 34.5803 27.3012 31.6485H49.4067C47.2577 34.5803 44.0341 35.6687 40.8028 36.1518V38.9117C50.4741 37.7129 57.9578 29.5099 57.9578 19.5683C57.9578 8.8013 49.1806 0.0731201 38.3542 0.0731201Z" fill="white"/>
<path fill-rule="evenodd" clip-rule="evenodd" d="M76.449 11.9753C77.3912 11.9753 78.2916 11.9546 79.2541 11.9137C79.5818 11.9137 79.7046 11.8325 79.7046 11.5066C79.7046 10.4683 79.1719 9.45064 78.2511 9.45064C77.4114 9.45064 76.6336 10.3664 76.449 11.9753ZM81.8542 15.9651C80.6056 17.6956 79.0699 18.1027 78.2916 18.1027C75.6509 18.1027 74.1567 16.0871 74.1567 13.7462C74.1567 12.2391 74.7498 10.9774 75.6103 10.1222C76.4906 9.20647 77.6164 8.65656 78.6808 8.65656H78.7015C80.5235 8.65656 81.9359 10.2241 81.9359 11.8532C81.9359 12.2599 81.8132 12.4839 81.3829 12.5651C81.0354 12.6059 78.5173 12.8093 76.347 12.8909C76.4084 15.2935 77.7595 16.4132 79.213 16.4132C80.0115 16.4132 80.7893 16.128 81.5061 15.4767L81.8542 15.9651Z" fill="white"/>
<path fill-rule="evenodd" clip-rule="evenodd" d="M90.8006 15.9449C89.8792 17.2067 88.5277 18.1027 87.3001 18.1027C84.5772 18.1027 82.98 16.0059 82.98 13.8072C82.98 12.2805 83.7171 10.8753 85.0475 9.87793C86.2762 8.96217 87.5861 8.65656 88.3644 8.65656H88.3846C89.1421 8.65656 89.818 8.90113 90.1655 9.16551C90.4525 9.3896 90.5342 9.59293 90.5342 9.87793C90.5141 10.4076 90.0229 10.8961 89.7154 10.8961C89.5926 10.8961 89.4695 10.8351 89.2852 10.6716C88.5277 10.0001 87.8525 9.6948 87.2178 9.6948C86.2148 9.6948 85.2118 10.611 85.2118 12.7689C85.2118 15.5171 87.1564 16.4132 88.1391 16.4132C88.9991 16.4132 89.613 16.1895 90.4318 15.4767L90.8006 15.9449Z" fill="white"/>
<path fill-rule="evenodd" clip-rule="evenodd" d="M97.2082 17.8585V17.2481C98.1908 17.1255 98.3136 17.0236 98.3136 15.5987V12.1585C98.3136 10.713 97.6998 10.1015 96.7373 10.1015C96.1031 10.1015 95.5298 10.4274 94.956 10.8754V15.7416C94.956 17.0442 95.0794 17.1255 96.0408 17.2481V17.8585H91.292V17.2481C92.602 17.0846 92.7045 17.0236 92.7045 15.68V11.4662C92.7045 10.2241 92.602 10.1429 91.5578 9.93898V9.40982C92.6425 9.24691 93.8511 8.98198 94.956 8.6156V10.1635C95.3655 9.87794 95.7957 9.55211 96.2664 9.24691C96.8601 8.8599 97.31 8.65657 97.9042 8.65657C99.5419 8.65657 100.566 9.83766 100.566 11.8532V15.7416C100.566 17.0442 100.689 17.1054 101.795 17.2481V17.8585H97.2082Z" fill="white"/>
<path fill-rule="evenodd" clip-rule="evenodd" d="M105.172 12.8709C105.172 15.395 106.093 17.3494 107.526 17.3494C108.489 17.3494 109.389 16.6982 109.389 13.7664C109.389 11.1196 108.571 9.40981 107.076 9.40981C106.093 9.40981 105.172 10.5495 105.172 12.8709ZM111.948 13.2169C111.948 16.4948 109.574 18.1027 107.301 18.1027C104.23 18.1027 102.613 15.8227 102.613 13.5831C102.613 10.2851 105.213 8.65656 107.383 8.65656C110.106 8.65656 111.948 10.7534 111.948 13.2169Z" fill="white"/>
<path fill-rule="evenodd" clip-rule="evenodd" d="M112.521 17.8585V17.2481C113.77 17.0846 113.914 16.9831 113.914 15.6598V6.23374C113.914 4.93112 113.811 4.89029 112.603 4.74772V4.19794C113.75 4.07586 115.183 3.77079 116.165 3.48566V15.6598C116.165 17.0236 116.309 17.1254 117.578 17.2481V17.8585H112.521Z" fill="white"/>
<path fill-rule="evenodd" clip-rule="evenodd" d="M122.267 7.59795C122.594 6.72221 123.27 4.68668 123.413 4.29968C123.617 4.17759 125.132 4.01468 125.44 4.07586L125.542 4.2796L122.88 7.86247L122.267 7.59795ZM120.874 12.8709C120.874 15.395 121.795 17.3494 123.229 17.3494C124.19 17.3494 125.091 16.6982 125.091 13.7664C125.091 11.1196 124.273 9.4098 122.778 9.4098C121.795 9.4098 120.874 10.5495 120.874 12.8709ZM127.65 13.2169C127.65 16.4948 125.276 18.1026 123.003 18.1026C119.932 18.1026 118.315 15.8227 118.315 13.5831C118.315 10.2851 120.915 8.65655 123.085 8.65655C125.808 8.65655 127.65 10.7534 127.65 13.2169Z" fill="white"/>
<path fill-rule="evenodd" clip-rule="evenodd" d="M131.397 11.6898C131.397 13.1761 131.97 14.3162 132.994 14.3162C133.813 14.3162 134.386 13.5015 134.386 11.9546C134.386 10.5299 133.834 9.36898 132.769 9.36898C132.073 9.36898 131.397 10.1635 131.397 11.6898ZM131.295 18.6325C130.906 18.9781 130.66 19.3852 130.66 19.8741C130.66 20.9119 131.725 21.8286 133.321 21.8286C135 21.8286 135.942 20.9325 135.942 19.7924C135.942 19.0598 135.491 18.6119 134.877 18.4084C134.345 18.2455 133.854 18.2047 133.035 18.2047C132.052 18.2047 131.602 18.3272 131.295 18.6325ZM138.051 9.06363C137.907 9.40981 137.518 10.0204 137.171 10.2442L135.983 10.1635C136.331 10.5909 136.556 11.1196 136.556 11.8119C136.556 13.9701 134.672 15.0286 132.769 15.0286C132.421 15.0286 132.073 14.9676 131.745 14.9273C131.541 15.0898 131.336 15.3546 131.336 15.5987C131.336 15.9449 131.684 16.3726 132.646 16.352C133.342 16.352 133.976 16.3314 134.632 16.3314C135.901 16.3314 137.702 16.6982 137.702 18.7742C137.702 21.0345 135.103 22.9275 132.38 22.9275C129.882 22.9275 128.674 21.5845 128.654 20.4442C128.654 19.9761 128.879 19.6299 129.247 19.304C129.719 18.8969 130.333 18.4897 130.824 18.1435C130.026 17.8792 129.575 17.4716 129.309 17.0236C129.104 16.7184 129.002 16.2707 129.022 16.026C130.005 15.6598 130.66 15.1104 131.008 14.7234C129.882 14.3364 129.084 13.3184 129.084 12.0157C129.084 9.71501 131.193 8.65656 132.933 8.65656H132.953C133.731 8.65656 134.345 8.83968 135.062 9.18572C136.085 9.14543 137.15 9.0228 137.948 8.92134L138.051 9.06363Z" fill="white"/>
<path fill-rule="evenodd" clip-rule="evenodd" d="M139.524 5.90833C139.524 5.17529 140.118 4.60516 140.835 4.60516C141.551 4.60516 142.124 5.17529 142.124 5.90833C142.124 6.60013 141.551 7.19088 140.814 7.19088C140.118 7.19088 139.524 6.60013 139.524 5.90833ZM138.48 17.8585V17.2481C139.709 17.1255 139.831 17.0236 139.831 15.5987V11.5066C139.831 10.2039 139.73 10.1222 138.644 9.95973V9.3896C139.811 9.24689 141.039 8.98197 142.084 8.63635V15.5987C142.084 16.9832 142.186 17.1054 143.455 17.2481V17.8585H138.48Z" fill="white"/>
<path fill-rule="evenodd" clip-rule="evenodd" d="M152.033 15.9449C151.112 17.2067 149.76 18.1027 148.533 18.1027C145.81 18.1027 144.212 16.0059 144.212 13.8072C144.212 12.2805 144.95 10.8753 146.28 9.87793C147.509 8.96217 148.819 8.65656 149.597 8.65656H149.617C150.375 8.65656 151.05 8.90113 151.398 9.16551C151.685 9.3896 151.767 9.59293 151.767 9.87793C151.746 10.4076 151.255 10.8961 150.948 10.8961C150.825 10.8961 150.702 10.8351 150.518 10.6716C149.76 10.0001 149.085 9.6948 148.45 9.6948C147.447 9.6948 146.444 10.611 146.444 12.7689C146.444 15.5171 148.389 16.4132 149.372 16.4132C150.232 16.4132 150.845 16.1895 151.664 15.4767L152.033 15.9449Z" fill="white"/>
<path fill-rule="evenodd" clip-rule="evenodd" d="M155.185 12.8709C155.185 15.395 156.107 17.3494 157.54 17.3494C158.502 17.3494 159.403 16.6982 159.403 13.7664C159.403 11.1196 158.585 9.40981 157.09 9.40981C156.107 9.40981 155.185 10.5495 155.185 12.8709ZM161.962 13.2169C161.962 16.4948 159.587 18.1027 157.314 18.1027C154.244 18.1027 152.626 15.8227 152.626 13.5831C152.626 10.2851 155.227 8.65656 157.397 8.65656C160.119 8.65656 161.962 10.7534 161.962 13.2169Z" fill="white"/>
<path fill-rule="evenodd" clip-rule="evenodd" d="M70.8564 28.825C70.4675 28.1127 69.8125 27.7867 69.137 27.7867C68.4818 27.7867 66.8647 28.3977 66.8647 31.4516C66.8647 33.9151 68.3387 34.953 69.4236 34.953C69.9353 34.953 70.3858 34.7901 70.8564 34.4847V28.825ZM74.5823 35.6244C74.0913 35.7062 72.3307 35.9504 70.8564 36.4192V35.1765L69.6078 35.9504C68.9935 36.3166 68.6049 36.3984 68.3796 36.3984C66.6599 36.3984 64.3262 34.953 64.3262 31.9808C64.3262 29.2114 66.7827 26.9518 69.8331 26.9518C70.0379 26.9518 70.3858 26.9932 70.8564 27.0945V24.4887C70.8564 23.308 70.7337 23.2062 69.4032 23.0839V22.4937C70.6315 22.3509 72.1669 22.0664 73.1085 21.7813V33.6704C73.1085 34.7901 73.2315 34.8713 74.0506 34.9732L74.5823 35.0346V35.6244Z" fill="white"/>
<path fill-rule="evenodd" clip-rule="evenodd" d="M77.7232 30.2704C78.665 30.2704 79.5659 30.2503 80.5279 30.2094C80.8555 30.2094 80.9784 30.1283 80.9784 29.8023C80.9784 28.7639 80.4461 27.7463 79.5249 27.7463C78.6857 27.7463 77.9075 28.662 77.7232 30.2704ZM83.128 34.2608C81.8789 35.9914 80.3443 36.3984 79.5659 36.3984C76.9253 36.3984 75.4307 34.383 75.4307 32.0418C75.4307 30.5353 76.0242 29.273 76.8841 28.4179C77.7644 27.5021 78.8902 26.9518 79.9551 26.9518H79.9754C81.7972 26.9518 83.2097 28.5197 83.2097 30.1483C83.2097 30.5555 83.087 30.78 82.6571 30.8607C82.3092 30.9017 79.7907 31.1049 77.6213 31.1867C77.6827 33.5892 79.0338 34.7088 80.4868 34.7088C81.2859 34.7088 82.0631 34.4231 82.7799 33.7723L83.128 34.2608Z" fill="white"/>
<path fill-rule="evenodd" clip-rule="evenodd" d="M99.9561 36.1543V35.5025C101.532 35.34 101.635 35.1971 101.614 33.2224L101.574 25.2217H101.471L96.783 36.0114H96.2718L91.9517 25.4457H91.87L91.6041 30.9426C91.522 32.6322 91.522 33.5483 91.5834 34.2608C91.6448 35.1971 92.0744 35.3601 93.4463 35.4823V36.1543H88.5737V35.4823C89.7407 35.3803 90.1298 35.0549 90.2733 34.3012C90.3962 33.6296 90.5386 32.6322 90.6823 30.4945L90.9893 26.4023C91.174 23.9594 91.0304 23.7353 89.2496 23.5724V22.921H93.1597L97.3565 32.2861L101.635 22.921H105.525V23.5724C103.825 23.7353 103.744 23.8579 103.785 25.6899L103.969 33.2224C104.03 35.1971 104.113 35.34 105.77 35.5025V36.1543H99.9561Z" fill="white"/>
<path fill-rule="evenodd" clip-rule="evenodd" d="M108.997 31.1659C108.997 33.6906 109.918 35.6452 111.352 35.6452C112.314 35.6452 113.215 34.9938 113.215 32.062C113.215 29.4153 112.396 27.7054 110.901 27.7054C109.918 27.7054 108.997 28.8452 108.997 31.1659ZM115.774 31.5125C115.774 34.7901 113.399 36.3984 111.126 36.3984C108.055 36.3984 106.438 34.1185 106.438 31.8789C106.438 28.5808 109.038 26.9518 111.208 26.9518C113.931 26.9518 115.774 29.049 115.774 31.5125Z" fill="white"/>
<path fill-rule="evenodd" clip-rule="evenodd" d="M122.339 36.1543V35.5432C123.321 35.4212 123.444 35.3194 123.444 33.8945V30.4541C123.444 29.0082 122.83 28.3977 121.868 28.3977C121.233 28.3977 120.66 28.7236 120.087 29.1711V34.0372C120.087 35.34 120.21 35.4212 121.172 35.5432V36.1543H116.422V35.5432C117.733 35.3803 117.835 35.3194 117.835 33.9756V29.7619C117.835 28.5198 117.733 28.4385 116.688 28.2348V27.7055C117.773 27.5425 118.981 27.2776 120.087 26.9114V28.4587C120.496 28.1736 120.926 27.8478 121.397 27.5425C121.99 27.1555 122.441 26.9518 123.035 26.9518C124.673 26.9518 125.697 28.1327 125.697 30.1483V34.0372C125.697 35.34 125.819 35.401 126.924 35.5432V36.1543H122.339Z" fill="white"/>
<path fill-rule="evenodd" clip-rule="evenodd" d="M131.535 36.1543C131.166 36.3167 130.859 36.3985 130.696 36.3985C129.221 36.3985 128.362 35.6452 128.362 33.8738V28.1127H127.031L126.928 27.8886L127.502 27.1964H128.362V25.7101L130.327 24.2036L130.614 24.3055V27.1964H132.722C132.947 27.4205 132.907 27.9497 132.599 28.1127H130.614V33.2024C130.614 34.8107 131.33 35.0347 131.781 35.0347C132.19 35.0347 132.579 34.9126 132.907 34.7699L133.091 35.4011L131.535 36.1543Z" fill="white"/>
<path fill-rule="evenodd" clip-rule="evenodd" d="M135.82 30.2704C136.762 30.2704 137.663 30.2503 138.625 30.2094C138.952 30.2094 139.075 30.1283 139.075 29.8023C139.075 28.7639 138.543 27.7463 137.621 27.7463C136.782 27.7463 136.004 28.662 135.82 30.2704ZM141.224 34.2608C139.976 35.9914 138.44 36.3984 137.663 36.3984C135.021 36.3984 133.527 34.383 133.527 32.0418C133.527 30.5353 134.121 29.273 134.98 28.4179C135.86 27.5021 136.986 26.9518 138.051 26.9518H138.072C139.894 26.9518 141.306 28.5197 141.306 30.1483C141.306 30.5555 141.184 30.78 140.753 30.8607C140.405 30.9017 137.887 31.1049 135.718 31.1867C135.779 33.5892 137.13 34.7088 138.583 34.7088C139.382 34.7088 140.16 34.4231 140.877 33.7723L141.224 34.2608Z" fill="white"/>
<path fill-rule="evenodd" clip-rule="evenodd" d="M145.569 29.1101C146.265 27.9088 147.105 26.9518 147.943 26.9518C148.722 26.9518 149.254 27.5219 149.254 28.1327C149.254 28.7437 148.865 29.2528 148.374 29.4359C148.108 29.5581 147.903 29.497 147.78 29.375C147.432 29.0895 147.186 28.9674 146.859 28.9674C146.408 28.9674 145.916 29.334 145.528 30.2704V34.0372C145.528 35.3194 145.63 35.4212 147.207 35.5432V36.1543H141.925V35.5432C143.092 35.4212 143.276 35.3194 143.276 34.0372V29.6802C143.276 28.5198 143.153 28.4385 142.109 28.2348V27.7055C143.256 27.5628 144.361 27.3186 145.528 26.9114V29.1101H145.569Z" fill="white"/>
<path fill-rule="evenodd" clip-rule="evenodd" d="M153.609 29.1101C154.304 27.9088 155.144 26.9518 155.983 26.9518C156.761 26.9518 157.293 27.5219 157.293 28.1327C157.293 28.7437 156.904 29.2528 156.413 29.4359C156.147 29.5581 155.942 29.497 155.82 29.375C155.471 29.0895 155.226 28.9674 154.898 28.9674C154.447 28.9674 153.956 29.334 153.568 30.2704V34.0372C153.568 35.3194 153.67 35.4212 155.246 35.5432V36.1543H149.964V35.5432C151.131 35.4212 151.315 35.3194 151.315 34.0372V29.6802C151.315 28.5198 151.193 28.4385 150.149 28.2348V27.7055C151.295 27.5628 152.4 27.3186 153.568 26.9114V29.1101H153.609Z" fill="white"/>
<path fill-rule="evenodd" clip-rule="evenodd" d="M159.883 30.2704C160.824 30.2704 161.726 30.2503 162.688 30.2094C163.016 30.2094 163.139 30.1283 163.139 29.8023C163.139 28.7639 162.606 27.7463 161.684 27.7463C160.845 27.7463 160.068 28.662 159.883 30.2704ZM165.288 34.2608C164.039 35.9914 162.504 36.3984 161.726 36.3984C159.085 36.3984 157.591 34.383 157.591 32.0418C157.591 30.5353 158.184 29.273 159.044 28.4179C159.924 27.5021 161.05 26.9518 162.116 26.9518H162.135C163.957 26.9518 165.37 28.5197 165.37 30.1483C165.37 30.5555 165.247 30.78 164.817 30.8607C164.469 30.9017 161.951 31.1049 159.782 31.1867C159.843 33.5892 161.194 34.7088 162.647 34.7088C163.446 34.7088 164.223 34.4231 164.94 33.7723L165.288 34.2608Z" fill="white"/>
<path fill-rule="evenodd" clip-rule="evenodd" d="M175.504 27.7867C174.481 27.9699 174.297 28.1535 173.764 29.273C173.252 30.3518 172.596 32.0419 171.308 35.0751C169.935 38.3323 169.526 39.574 169.177 40.7141C169.056 41.1421 168.789 41.244 168.461 41.244C167.889 41.244 167.131 40.6946 167.131 40.0629C167.131 39.7375 167.274 39.5543 167.664 39.2894C168.421 38.8827 168.871 38.4348 169.281 37.7012C169.567 37.2128 169.69 36.9076 169.772 36.6633C169.874 36.3374 169.834 36.0524 169.71 35.7063C168.728 32.9985 167.684 30.2504 167.213 29.151C166.823 28.1944 166.599 27.9497 165.575 27.7867V27.1964H170.304V27.7867C169.403 27.9699 169.26 28.1127 169.505 28.8049L171.164 33.5484C171.676 32.3063 172.433 30.1283 172.822 28.927C173.047 28.214 172.884 27.9699 171.819 27.7867V27.1964H175.504V27.7867Z" fill="white"/>
<path fill-rule="evenodd" clip-rule="evenodd" d="M64.0308 4.35455C63.9776 5.55984 63.8806 6.6572 63.811 7.85259H64.4999C64.7438 6.86054 64.9671 6.19884 65.2709 5.8469C65.5554 5.45302 65.9398 5.26783 67.6033 5.26783H68.5157V15.1715C68.5157 16.8872 68.3122 17.0521 66.5688 17.1979V17.8585H72.8949V17.1979C71.0498 17.0521 70.8679 16.8872 70.8679 15.1715V5.26783H71.9624C73.281 5.26783 73.7266 5.39198 74.0922 5.80497C74.3961 6.15801 74.6387 6.79757 74.8823 7.83197L75.5517 7.79059C75.4675 6.72072 75.3833 5.49536 75.3576 4.35455H64.0308Z" fill="white"/>
</svg>
